<?xml version="1.0" encoding="UTF-8" standalone="no"?>
<!-- Created with Inkscape (http://www.inkscape.org/) -->

<svg
   version="1.1"
   id="svg1"
   width="1825"
   height="646"
   viewBox="0 0 1825 646"
   sodipodi:docname="RustLogo.svg"
   inkscape:version="1.4 (e7c3feb100, 2024-10-09)"
   inkscape:export-filename="rust-anticaptcha/files/RustLogo.svg"
   inkscape:export-xdpi="418.14865"
   inkscape:export-ydpi="418.14865"
   xmlns:inkscape="http://www.inkscape.org/namespaces/inkscape"
   xmlns:sodipodi="http://sodipodi.sourceforge.net/DTD/sodipodi-0.dtd"
   xmlns="http://www.w3.org/2000/svg"
   xmlns:svg="http://www.w3.org/2000/svg">
  <defs
     id="defs1">
    <rect
       x="843.47198"
       y="27.812553"
       width="1032.3416"
       height="206.22446"
       id="rect11" />
  </defs>
  <sodipodi:namedview
     id="namedview1"
     pagecolor="#ffffff"
     bordercolor="#000000"
     borderopacity="0.25"
     inkscape:showpageshadow="2"
     inkscape:pageopacity="0.0"
     inkscape:pagecheckerboard="0"
     inkscape:deskcolor="#d1d1d1"
     inkscape:zoom="0.48539232"
     inkscape:cx="633.50817"
     inkscape:cy="405.85727"
     inkscape:window-width="2560"
     inkscape:window-height="1373"
     inkscape:window-x="0"
     inkscape:window-y="0"
     inkscape:window-maximized="1"
     inkscape:current-layer="layer2"
     showgrid="true">
    <inkscape:grid
       id="grid12"
       units="px"
       originx="15"
       originy="31.000004"
       spacingx="1"
       spacingy="1"
       empcolor="#0099e5"
       empopacity="0.30196078"
       color="#0099e5"
       opacity="0.14901961"
       empspacing="5"
       enabled="true"
       visible="true" />
    <inkscape:page
       x="0"
       y="0"
       width="1825"
       height="646"
       id="page2"
       margin="0"
       bleed="0" />
  </sodipodi:namedview>
  <g
     inkscape:groupmode="layer"
     id="layer2"
     inkscape:label="Back"
     style="stroke:none"
     transform="matrix(0.96958902,0,0,1.0492057,61.16078,-25.195123)"
     sodipodi:insensitive="true"
     inkscape:export-filename="rust-anticaptcha/files/RustLogo.png"
     inkscape:export-xdpi="105.20548"
     inkscape:export-ydpi="105.20548">
    <rect
       style="fill:#ffffff;fill-opacity:1;stroke:none;stroke-width:10;stroke-linecap:square;stroke-linejoin:bevel;stroke-dasharray:none;stroke-dashoffset:0;stroke-opacity:1;paint-order:normal"
       id="rect12"
       width="1938.9658"
       height="895.91583"
       x="-88.863197"
       y="-117.99867" />
  </g>
  <g
     inkscape:groupmode="layer"
     inkscape:label="RustLogo"
     id="g1"
     inkscape:export-filename="../Documents/Prog/RedPandaDev/Documents/Prog/RedPandaDev/Documents/Prog/RedPandaDev/Rust/RustLogo.svg"
     inkscape:export-xdpi="418.14865"
     inkscape:export-ydpi="418.14865"
     sodipodi:insensitive="true"
     transform="translate(15,31.000004)">
    <path
       style="fill:#8e1d18;fill-opacity:1;stroke-width:15.1181;stroke-opacity:0.577194"
       d="m 671.1871,396.05527 c 2.82064,-3.17397 48.89139,-21.85784 52.0733,-22.23532 3.18192,-0.37747 8.32208,1.50229 8.31876,4.38935 -0.003,2.88706 -13.94195,59.45534 -14.78446,63.13305 -0.84251,3.6777 -17.25831,18.84613 -24.24923,26.70688 -6.99093,7.86075 -29.04096,27.98075 -32.19046,26.20303 -3.14951,-1.77772 0.48444,-22.73698 4.18476,-36.24645 3.70032,-13.50947 10.78485,-32.93919 11.97485,-36.56836 1.19001,-3.62917 -13.9854,5.04611 -13.30866,2.25333 0.67674,-2.79278 5.1605,-24.46154 7.98114,-27.63551 z"
       id="path4"
       sodipodi:nodetypes="zzzzzzzzzz"
       inkscape:label="CrabBack_Right"
       sodipodi:insensitive="true" />
    <path
       style="fill:#8e1d18;fill-opacity:1;stroke-width:15.1181;stroke-opacity:0.577194"
       d="m 85.460266,382.75592 c -0.320117,-1.67821 0.730323,-3.80322 3.562266,-3.55089 2.831944,0.25234 14.324418,6.65587 26.454398,10.67262 16.04215,5.31224 31.33618,8.9306 32.47665,11.37247 1.14047,2.44187 4.96015,15.13018 5.9981,18.53397 1.03795,3.40378 4.81229,14.74989 6.83972,19.84291 2.02743,5.09302 5.18924,18.01304 6.46444,24.8562 1.27519,6.84317 5.45545,25.72848 2.00306,28.08842 -3.45239,2.35994 -20.48014,-14.24428 -26.31298,-20.53141 -5.83284,-6.28712 -12.74424,-14.10287 -19.89407,-22.48894 -7.14983,-8.38607 -17.42069,-19.2542 -22.72666,-28.45032 -5.305967,-9.19612 -14.544807,-36.66683 -14.864924,-38.34503 z"
       id="path5"
       sodipodi:nodetypes="zzszzzzzzzzz"
       inkscape:label="CrabBack_Left"
       sodipodi:insensitive="true" />
    <path
       style="fill:#8e1d18;fill-opacity:1;stroke-width:15.1181;stroke-opacity:0.577194"
       d="m 195.87731,412.64259 c 2.8755,1.85685 46.54521,12.67035 76.38957,17.61504 29.84436,4.94469 71.31754,9.72287 105.58469,11.33104 34.26715,1.60817 80.84396,-0.21531 96.71661,-1.71411 15.87265,-1.49881 97.60558,-13.83672 101.28689,-14.44549 3.68131,-0.60876 47.63753,-14.97893 46.54739,-12.00704 -1.09015,2.9719 -8.57155,20.15571 -13.02645,23.47948 -4.4549,3.32378 -53.52007,9.52411 -61.90279,10.22341 -8.38271,0.6993 -15.28641,-3.13832 -29.40828,-1.89993 -14.12186,1.23838 -26.7881,6.00787 -35.46563,8.53168 -8.67753,2.52381 -119.52102,3.47062 -127.41889,1.37839 -6.41321,-1.69892 -31.42611,-8.21887 -38.2704,-8.97033 -6.84429,-0.75146 -30.99203,3.87033 -47.79781,2.57022 -11.24822,-0.87016 -54.86821,-6.12084 -58.97291,-8.88456 -4.1047,-2.76372 -17.1375,-29.06465 -14.26199,-27.2078 z"
       id="path6"
       sodipodi:nodetypes="zzzzzzzzzzzzzzz"
       inkscape:label="CrabBack_Center"
       sodipodi:insensitive="true" />
    <path
       id="path1"
       style="color:#000000;display:inline;opacity:1;fill:#e43716;fill-opacity:1;-inkscape-stroke:none"
       d="m 406.30859,0 c -13.52457,0 -27.2675,37.173271 -30.19531,39.529297 -2.92781,2.356027 -7.40407,4.07001 -12.10351,2.060547 -4.69944,-2.009462 -24.6252,-36.1468805 -36.87891,-34.3515628 -12.2537,1.7953177 -19.91326,42.2351918 -22.48047,45.6835938 -2.56721,3.448402 -6.43283,4.657976 -11.13477,4.458984 -4.70193,-0.198993 -32.45108,-29.714365 -43.42773,-26.451171 -10.97665,3.263193 -11.3353,46.277769 -13.875,51.027343 -2.53969,4.749577 -8.17533,5.278647 -11.26562,4.699219 -3.09028,-0.579429 -36.53066,-22.35875 -45.71094,-16.287109 -9.18027,6.071641 -1.84262,49.389909 -4.69922,53.499999 -2.85659,4.11009 -3.60534,5.9354 -8.36914,6.75977 -4.76379,0.82437 -40.67717,-15.34139 -49.44531,-7.46875 -8.76814,7.87264 7.11144,51.01197 6.4375,53.4375 -0.67394,2.42552 -2.41315,5.71559 -7.1211,8.05273 -4.70795,2.33714 -44.877604,-5.72614 -50.822263,4.4668 -5.944658,10.19294 16.798832,46.51167 16.675781,49.99414 -0.123052,3.48248 -1.72906,5.70807 -6.695312,9.33398 -4.966252,3.62591 -43.210354,2.97155 -47.835938,14.03516 -4.625585,11.06361 25.111901,42.10241 24.400391,45.06641 -0.711509,2.96399 -13.033415,3.21847 -32.640625,24.27148 C -0.48611565,352.87137 0,375.2484 0,383.58203 c 0,8.33363 5.5880044,35.82033 22.533203,56.7832 16.945199,20.96287 53.435547,65.1543 53.435547,65.1543 0,0 26.47866,29.28249 36.05469,37.14649 9.57604,7.864 17.09281,14.4117 20.15039,12.03906 3.05759,-2.37263 -0.1137,-23.35777 -2.50977,-34.63672 -2.39607,-11.27895 -19.14948,-67.10273 -23.5,-79.44531 -4.35051,-12.34257 -19.791896,-56.83853 -19.894529,-59.875 -0.102633,-3.03646 19.572799,6.3731 30.066409,9.72265 10.49361,3.34956 30.00598,8.92661 31.61133,11.78125 1.60535,2.85464 4.94683,20.64321 10.55859,32.64063 5.61176,11.99743 12.32395,22.56317 18.79883,30.83984 6.47488,8.27667 20.83265,20.63175 30.90234,26.78125 10.06969,6.1495 17.78724,8.14207 19.81138,8.93301 2.02414,0.79093 -2.02682,7.23997 2.24917,25.65488 4.27599,18.41491 9.91005,28.41956 28.06445,44.94532 C 276.48642,588.57263 308.58513,599 325.83789,599 c 17.25276,0 29.01506,-2.49074 30.58984,-3.75 1.57478,-1.25926 -8.95182,-8.57992 -19.06445,-21.70703 -10.11263,-13.12711 -30.25749,-41.03945 -25.82812,-40.54883 4.42937,0.49063 24.1186,2.9036 45.08984,4.04688 25.33171,1.38099 51.21047,2.14895 53.1582,2.21875 1.94774,0.0698 1.37035,-35.82867 -16.80078,-55.4375 -18.17114,-19.60883 -37.99985,-31.12628 -58.52148,-36.17774 -20.52163,-5.05146 -45.7453,-3.18267 -52.43555,-0.87109 -17.52167,6.05398 -25.05595,11.76892 -28.86914,15.32226 -3.81319,3.55335 -15.64222,-2.38346 -20.19141,-4.51953 -8.64483,-4.05916 -17.27682,-10.37014 -22.19922,-16.77344 -4.92239,-6.4033 -17.64313,-27.99264 -13.19531,-26.64843 4.44782,1.34421 39.75961,10.19319 73.03125,15.91992 33.27164,5.72674 84.47097,10.63723 98.86133,11.43359 14.39037,0.79636 41.18454,2.45512 63.51953,1.60157 22.33499,-0.85359 48.44133,-2.84891 74.23242,-6.01758 25.7911,-3.16867 60.69278,-9.75228 80.86719,-13.84571 20.1744,-4.09343 34.58772,-12.60864 33.41406,-8.70312 -1.17366,3.90552 -10.92832,22.85513 -18.51367,30.46094 -7.58536,7.60581 -19.55452,13.10933 -24.04492,15.4414 -4.49041,2.33207 -9.84408,-6.37262 -18.56055,-9.57031 -8.71647,-3.1977 -22.97943,-6.72205 -36.24609,-6.05664 -13.26665,0.66541 -33.19551,3.08848 -47.7207,11.80078 -14.52518,8.71229 -33.95823,24.41032 -43.0918,41.30469 -9.13358,16.89437 -9.11525,42.53731 -7.57617,44.35937 0.85019,1.00651 51.59816,-2.86116 66.45703,-4.24414 14.85886,-1.38298 34.45818,-4.20205 33.15625,-2.20312 -2.9087,4.46591 -14.60624,21.30306 -18.125,25.84179 -3.51876,4.53874 -28.10204,27.68595 -29.04492,32.32227 -0.94288,4.63632 36.71982,2.86473 49.98633,0.27344 13.26649,-2.59128 36.29508,-16.9347 47.43554,-27.22461 11.14045,-10.28992 21.35192,-28.73787 24.12891,-38.0586 2.777,-9.32074 0.55204,-29.06574 1.91211,-32.32226 1.36008,-3.25651 13.93276,-4.73222 34.05078,-24.76367 10.80111,-10.75464 21.55656,-30.96832 27.69922,-47.73633 5.29858,-14.46385 4.20239,-26.70022 9.90429,-28.83594 5.70189,-2.13571 45.33797,-20.55259 49.89454,-20.75976 4.55657,-0.20718 6.58968,1.65416 6.64648,5.73632 0.0568,4.08216 -9.61442,40.46399 -12.29102,56.54102 -2.67661,16.07703 -9.40555,53.39612 -11.29101,68.01367 -1.88545,14.61754 -4.66434,51.44019 1.63867,53.08203 6.30301,1.64185 38.21854,-44.70568 47.4375,-59.72851 9.21897,-15.02283 38.54552,-62.02822 47.43555,-79.84961 8.89003,-17.82139 11.65524,-47.96442 7.13281,-60.0918 -4.52243,-12.12739 -8.00728,-20.23533 -18.87891,-32.77734 -10.87163,-12.54202 -32.08563,-16.01749 -28.40625,-23.03516 3.67939,-7.01768 27.04992,-30.17916 21.85157,-40.60742 -5.19835,-10.42825 -39.75842,-9.25531 -47.61914,-13.01953 -7.86072,-3.76422 -7.18041,-12.15466 -3.18555,-18.57422 3.99485,-6.41956 18.72917,-33.93801 13.01953,-42.2461 -5.70963,-8.30807 -46.48035,-1.33011 -50.25781,-3.00585 -3.77746,-1.67574 -8.57425,-5.44439 -7.64844,-10.37891 0.9258,-4.93451 14.71394,-43.73427 6.64648,-51.35156 -8.06747,-7.61729 -45.69397,6.47978 -47.98242,7.19336 -2.28845,0.71358 -9.43261,-3.00015 -10.65234,-7.01172 -1.21973,-4.01157 5.92232,-46.584715 -4.2793,-52.806643 -10.20162,-6.221929 -38.06645,13.469831 -43.41601,15.794922 -5.34957,2.32509 -8.69659,-0.105057 -13.08204,-4.814453 -4.38544,-4.709395 -1.83099,-44.668615 -12.61914,-50.152344 -10.78815,-5.483729 -40.73876,25.649646 -44.29296,26.267578 -3.55419,0.617932 -7.17334,-0.918926 -11.52344,-5.150391 -4.35011,-4.231465 -8.92663,-41.51739 -21.18164,-45.130859 -12.25501,-3.6134691 -34.15445,31.750123 -37.59961,33.798828 -3.44516,2.048705 -6.89714,2.073203 -11.20117,-0.449219 C 433.29362,38.295938 419.83316,0 406.30859,0 Z"
       sodipodi:nodetypes="ssssssssssssssssssssssscssssssssszzzsssssssssssssssssssssssssssssssssssssssssssssssssssssssssssssssssss"
       inkscape:label="CrabFront"
       sodipodi:insensitive="true" />
    <ellipse
       style="fill:#e6e6e7;fill-opacity:1;stroke-width:19.3186;stroke-opacity:0.577194"
       id="path9"
       cx="332.05371"
       cy="328.46582"
       rx="53.262699"
       ry="59.145508"
       inkscape:label="EyeLeftBack"
       sodipodi:insensitive="true" />
    <ellipse
       style="fill:#e6e6e7;fill-opacity:1;stroke-width:19.3186;stroke-opacity:0.577194"
       id="path9-2"
       cx="501.95703"
       cy="327.7041"
       rx="53.262699"
       ry="59.145508"
       inkscape:label="EyeRightBack"
       sodipodi:insensitive="true" />
    <path
       id="path7"
       style="opacity:1;fill:#000000;fill-opacity:1;stroke-width:16.409;stroke-opacity:0.577194"
       inkscape:label="EyeLeft"
       d="m 332.05273,269.32031 a 53.26329,59.144917 0 0 0 -14.6289,2.30469 28.43701,42.369373 0 0 1 26.01367,42.21094 28.43701,42.369373 0 0 1 -28.43555,42.36914 28.43701,42.369373 0 0 1 -28.4375,-42.36914 28.43701,42.369373 0 0 1 4.88672,-23.58594 53.26329,59.144917 0 0 0 -12.66015,38.2168 53.26329,59.144917 0 0 0 53.26171,59.14453 53.26329,59.144917 0 0 0 53.26368,-59.14453 53.26329,59.144917 0 0 0 -53.26368,-59.14649 z"
       sodipodi:insensitive="true" />
    <path
       id="path7-3"
       style="display:inline;opacity:1;fill:#000000;fill-opacity:1;stroke-width:16.409;stroke-opacity:0.577194"
       inkscape:label="EyeRight"
       d="m 501.95703,268.55859 a 53.26329,59.144917 0 0 0 -14.75586,2.33594 28.43701,42.369373 0 0 1 28.37695,42.36719 28.43701,42.369373 0 0 1 -28.43554,42.36914 28.43701,42.369373 0 0 1 -28.4375,-42.36914 28.43701,42.369373 0 0 1 8.88086,-30.68164 53.26329,59.144917 0 0 0 -18.89258,45.12304 53.26329,59.144917 0 0 0 53.26367,59.14454 53.26329,59.144917 0 0 0 53.26367,-59.14454 53.26329,59.144917 0 0 0 -53.26367,-59.14453 z"
       sodipodi:insensitive="true" />
  </g>
  <g
     inkscape:groupmode="layer"
     id="layer1"
     inkscape:label="Text"
     sodipodi:insensitive="true"
     inkscape:export-filename="rust-anticaptcha/Documents/Prog/RedPandaDev/Documents/Prog/RedPandaDev/Documents/Prog/RedPandaDev/Rust/RustLogo.svg"
     inkscape:export-xdpi="418.14865"
     inkscape:export-ydpi="418.14865"
     transform="translate(15,31.000004)">
    <rect
       style="mix-blend-mode:normal;fill:#8e1d18;fill-opacity:1;stroke:#e43716;stroke-width:11.0958;stroke-linecap:square;stroke-linejoin:bevel;stroke-dasharray:none;stroke-dashoffset:0;stroke-opacity:1;paint-order:normal"
       id="rect10"
       width="960.00006"
       height="30.500013"
       x="830"
       y="299.5"
       inkscape:label="Line" />
    <text
       xml:space="preserve"
       id="text10"
       style="font-weight:bold;font-size:133.333px;font-family:'DejaVu Sans Mono';-inkscape-font-specification:'DejaVu Sans Mono Bold';text-align:start;writing-mode:lr-tb;direction:ltr;white-space:pre;shape-inside:url(#rect11);display:inline;fill:#000000;fill-opacity:1;stroke-width:15.1181;stroke-opacity:0.577194"
       transform="translate(26.986371,109.82723)"
       inkscape:label="LibraryName"><tspan
         x="843.47266"
         y="145.78095"
         id="tspan2">AntiCaptcha</tspan></text>
  </g>
</svg>
